<svg version="1.1" viewBox="0.0 0.0 500.0 500.0" fill="none" stroke="none" stroke-linecap="square" stroke-miterlimit="10" xmlns:xlink="http://www.w3.org/1999/xlink" xmlns="http://www.w3.org/2000/svg"><clipPath id="g3daa83e526_0_66.0"><path d="m0 0l500.0 0l0 500.0l-500.0 0l0 -500.0z" clip-rule="nonzero"/></clipPath><g clip-path="url(#g3daa83e526_0_66.0)"><path fill="#000000" d="m0 0l500.0 0l0 500.0l-500.0 0z" fill-rule="evenodd"/><path fill="#ffffff" d="m0 479.05554l500.0 0l0 20.944855l-500.0 0z" fill-rule="evenodd"/><path fill="#ffffff" d="m87.89501 479.04953l0 -460.97638l20.944885 0l0 460.97638z" fill-rule="evenodd"/><path fill="#ffffff" d="m3.3596365 485.1971l90.67717 -90.677185l14.803146 14.803162l-90.67716 90.677155z" fill-rule="evenodd"/><path fill="#ffffff" d="m193.37538 485.1971l-90.67716 -90.677185l-14.803146 14.803162l90.67716 90.677155z" fill-rule="evenodd"/><path fill="#ffffff" d="m87.89507 108.750916l90.67716 -90.67717l14.803146 14.803148l-90.67716 90.67717z" fill-rule="evenodd"/><path fill="#ffffff" d="m100.8399 18.07349l227.90552 0l0 20.944881l-227.90552 0z" fill-rule="evenodd"/><path fill="#ffffff" d="m298.40945 39.01837l0 80.97638l-6.551178 0l0 -80.97638z" fill-rule="evenodd"/><path fill="#000000" fill-opacity="0.0" d="m259.3701 158.95538l0 0c0 -19.551758 16.011993 -35.40158 35.763763 -35.40158l0 0c9.485138 0 18.581818 3.729805 25.288818 10.368881c6.7070007 6.639084 10.474976 15.643616 10.474976 25.0327l0 0c0 19.551743 -16.011993 35.401566 -35.763794 35.401566l0 0c-19.75177 0 -35.763763 -15.849823 -35.763763 -35.401566z" fill-rule="evenodd"/><path stroke="#ffffff" stroke-width="8.0" stroke-linejoin="round" stroke-linecap="butt" d="m259.3701 158.95538l0 0c0 -19.551758 16.011993 -35.40158 35.763763 -35.40158l0 0c9.485138 0 18.581818 3.729805 25.288818 10.368881c6.7070007 6.639084 10.474976 15.643616 10.474976 25.0327l0 0c0 19.551743 -16.011993 35.401566 -35.763794 35.401566l0 0c-19.75177 0 -35.763763 -15.849823 -35.763763 -35.401566z" fill-rule="evenodd"/><path fill="#ffffff" d="m293.7805 246.3315l-57.259857 -57.259842l4.6299286 -4.6299286l57.259842 57.259842z" fill-rule="evenodd"/><path fill="#ffffff" d="m298.40945 197.91602l0 106.2677l-6.551178 0l0 -106.2677z" fill-rule="evenodd"/><path fill="#ffffff" d="m296.48914 246.3315l57.259827 -57.259842l-4.6299133 -4.6299286l-57.259827 57.259842z" fill-rule="evenodd"/><path fill="#ffffff" d="m241.15056 361.8726l57.259842 -57.259857l-4.6299133 -4.6299133l-57.259857 57.259857z" fill-rule="evenodd"/><path fill="#ffffff" d="m349.11905 363.31766l-57.259827 -57.259827l4.6299133 -4.6299133l57.259827 57.259827z" fill-rule="evenodd"/><path fill="#ffffff" d="m278.35367 157.32886l9.921234 -9.921265l-1.102356 -1.102356l-9.921265 9.921265z" fill-rule="evenodd"/><path fill="#ffffff" d="m288.2749 156.2265l-9.921234 -9.921265l-1.1023865 1.102356l9.921265 9.921265z" fill-rule="evenodd"/><path fill="#ffffff" d="m303.1253 157.32886l9.921265 -9.921265l-1.102356 -1.102356l-9.921265 9.921265z" fill-rule="evenodd"/><path fill="#ffffff" d="m313.04657 156.2265l-9.921265 -9.921265l-1.102356 1.102356l9.921265 9.921265z" fill-rule="evenodd"/><path fill="#ffffff" d="m307.63504 170.21524l-22.86612 6.67717l0.4409485 1.5118103l22.86612 -6.67717z" fill-rule="evenodd"/><path fill="#ffffff" d="m301.13 183.15506l-3.569519 1.0288696l0 0c-0.23669434 0.068222046 -0.49084473 0.039642334 -0.706604 -0.079437256c-0.21575928 -0.11907959 -0.37539673 -0.3189087 -0.44381714 -0.55552673l-2.3561707 -8.147186c0 -3.0517578E-5 0 -4.5776367E-5 3.0517578E-5 -6.1035156E-5l5.354309 -1.5432434l0 0c3.0517578E-5 -1.5258789E-5 6.1035156E-5 0 6.1035156E-5 3.0517578E-5l2.356079 8.147156l0 0c0.14251709 0.49273682 -0.14151001 1.0073395 -0.6343689 1.1493988z" fill-rule="evenodd"/><path fill="#000000" d="m298.6639 180.98508l-1.6062927 -5.448807l-0.5354309 0.1574707l1.6062927 5.448822z" fill-rule="evenodd"/></g></svg>