<svg version="1.1" viewBox="0.0 0.0 500.0 500.0" fill="none" stroke="none" stroke-linecap="square" stroke-miterlimit="10" xmlns:xlink="http://www.w3.org/1999/xlink" xmlns="http://www.w3.org/2000/svg"><clipPath id="g3daa83e526_0_22.0"><path d="m0 0l500.0 0l0 500.0l-500.0 0l0 -500.0z" clip-rule="nonzero"/></clipPath><g clip-path="url(#g3daa83e526_0_22.0)"><path fill="#000000" d="m0 0l500.0 0l0 500.0l-500.0 0z" fill-rule="evenodd"/><path fill="#ffffff" d="m0 479.05554l500.0 0l0 20.944855l-500.0 0z" fill-rule="evenodd"/><path fill="#ffffff" d="m87.89501 479.04953l0 -460.97638l20.944885 0l0 460.97638z" fill-rule="evenodd"/><path fill="#ffffff" d="m3.3596365 485.1971l90.67717 -90.677185l14.803146 14.803162l-90.67716 90.677155z" fill-rule="evenodd"/><path fill="#ffffff" d="m193.37538 485.1971l-90.67716 -90.677185l-14.803146 14.803162l90.67716 90.677155z" fill-rule="evenodd"/><path fill="#ffffff" d="m87.89507 108.750916l90.67716 -90.67717l14.803146 14.803148l-90.67716 90.67717z" fill-rule="evenodd"/><path fill="#ffffff" d="m100.8399 18.07349l227.90552 0l0 20.944881l-227.90552 0z" fill-rule="evenodd"/><path fill="#ffffff" d="m298.40945 39.01837l0 80.97638l-6.551178 0l0 -80.97638z" fill-rule="evenodd"/><path fill="#000000" fill-opacity="0.0" d="m259.3701 158.95538l0 0c0 -19.551758 16.011993 -35.40158 35.763763 -35.40158l0 0c9.485138 0 18.581818 3.729805 25.288818 10.368881c6.7070007 6.639084 10.474976 15.643616 10.474976 25.0327l0 0c0 19.551743 -16.011993 35.401566 -35.763794 35.401566l0 0c-19.75177 0 -35.763763 -15.849823 -35.763763 -35.401566z" fill-rule="evenodd"/><path stroke="#ffffff" stroke-width="8.0" stroke-linejoin="round" stroke-linecap="butt" d="m259.3701 158.95538l0 0c0 -19.551758 16.011993 -35.40158 35.763763 -35.40158l0 0c9.485138 0 18.581818 3.729805 25.288818 10.368881c6.7070007 6.639084 10.474976 15.643616 10.474976 25.0327l0 0c0 19.551743 -16.011993 35.401566 -35.763794 35.401566l0 0c-19.75177 0 -35.763763 -15.849823 -35.763763 -35.401566z" fill-rule="evenodd"/><path fill="#ffffff" d="m293.7805 246.3315l-57.259857 -57.259842l4.6299286 -4.6299286l57.259842 57.259842z" fill-rule="evenodd"/><path fill="#ffffff" d="m298.40945 197.91602l0 106.2677l-6.551178 0l0 -106.2677z" fill-rule="evenodd"/></g></svg>